<svg width="2500" height="525" viewBox="5 4.789 240 50.421" xmlns="http://www.w3.org/2000/svg" xmlns:xlink="http://www.w3.org/1999/xlink" overflow="hidden"><g fill="#007AC1"><path d="M234.952 44.938C235.859 44.938 236.394 44.79 236.73 44.491 236.991 44.218 237.122 43.584 237.122 42.552L237.122 21.406C237.122 20.324 237.004 19.606 236.779 19.248 236.48 18.794 235.847 18.567 234.888 18.567L234.156 18.567 234.156 17.041 242.662 16.382 242.662 42.563C242.662 43.907 243.021 44.665 243.744 44.827 244.029 44.901 244.453 44.938 245 44.938L245 46.581 234.952 46.581 234.952 44.938ZM221.607 37.327C222.39 36.662 223.795 36.134 225.824 35.734L225.824 38.745C225.824 40.449 225.562 41.742 225.053 42.625 224.395 43.807 223.536 44.391 222.466 44.391 221.832 44.391 221.297 44.119 220.862 43.559 220.426 42.998 220.204 42.19 220.204 41.121 220.203 39.379 220.676 38.123 221.607 37.327M217.995 29.278C218.163 28.833 218.599 28.407 219.308 28.003 220.124 27.5436 221.045 27.3038 221.982 27.307 224.544 27.307 225.825 28.479 225.825 30.829L225.825 34.062C222.032 34.801 219.32 35.654 217.667 36.618 215.516 37.861 214.434 39.603 214.434 41.842 214.434 43.16 214.838 44.317 215.653 45.299 216.716 46.569 218.291 47.201 220.38 47.201 221.568 47.201 222.705 46.865 223.787 46.181 224.795 45.558 225.553 44.763 226.063 43.792L226.063 44.787C226.092 45.633 226.092 46.242 226.063 46.578L233.417 46.578 233.417 44.936 233.137 44.936C231.956 44.936 231.366 44.126 231.366 42.498L231.366 32.688C231.366 27.954 228.685 25.584 223.339 25.584 221.175 25.584 219.36 26.041 217.886 26.955 216.412 27.866 215.678 29.059 215.678 30.543 215.678 31.565 216.014 32.374 216.699 32.962 217.27 33.4513 217.999 33.7154 218.751 33.705 219.615 33.705 220.33 33.434 220.902 32.893 221.48 32.358 221.771 31.753 221.771 31.091 221.771 29.45 220.894 28.626 219.161 28.626 218.502 28.626 217.968 28.837 217.568 29.254L217.998 29.421C218.002 29.328 218.002 29.278 217.995 29.278M75.636 33.93C78.988 33.93 81.667 33.274 83.682 31.971 85.958 30.514 87.09 28.362 87.09 25.504 87.09 22.535 85.94 20.324 83.639 18.866 81.681 17.619 79.032 16.994 75.686 16.994L64.543 16.994 64.543 18.608C65.867 18.608 66.688 18.704 67.005 18.888 67.546 19.193 67.819 20.023 67.819 21.385L67.819 42.414C67.819 43.445 67.595 44.143 67.141 44.503 66.768 44.789 66.072 44.926 65.045 44.926L64.542 44.926 64.542 46.569 77.8 46.569 77.8 44.926 76.42 44.926C75.357 44.926 74.635 44.764 74.25 44.416 73.865 44.08 73.672 43.421 73.672 42.414L73.672 33.93 75.636 33.93ZM81.008 25.526C81.008 29.879 79.23 32.055 75.685 32.055L73.82 32.055 73.82 18.714 75.685 18.714C79.23 18.714 81.008 20.987 81.008 25.526M95.527 30.118C96.298 27.093 97.933 25.579 100.445 25.579 101.365 25.579 102.099 25.828 102.653 26.331 103.206 26.834 103.486 27.497 103.486 28.327 103.491 29.035 103.241 29.7212 102.783 30.261 102.248 30.883 101.577 31.199 100.768 31.199 99.997 31.199 99.382 30.96 98.928 30.488 98.493 30.074 98.3 29.565 98.337 28.961 98.337 28.905 98.368 28.762 98.418 28.535 97.659 29.49 97.063 31.125 96.615 33.426 96.254 35.27 96.068 36.961 96.068 38.485L96.068 42.551C96.068 43.508 96.18 44.13 96.391 44.416 96.652 44.764 97.361 44.926 98.505 44.926L99.195 44.926 99.195 46.569 88.041 46.569 88.041 44.926 88.458 44.926C89.223 44.926 89.776 44.789 90.112 44.516 90.447 44.254 90.609 43.583 90.609 42.551L90.609 33.684C90.609 30.628 90.528 28.927 90.36 28.588 90.124 28.038 89.664 27.764 88.98 27.764L88.396 27.764 88.396 26.126 95.385 26.126 95.527 30.118ZM118.676 43.309C118.589 43.36 118.502 43.434 118.39 43.497L118.676 43.336C118.328 44.293 117.687 45.151 116.742 45.885 115.671 46.7412 114.339 47.203 112.968 47.193 110.605 47.193 108.939 46.546 107.969 45.24 107.198 44.219 106.806 42.616 106.806 40.439L106.806 31.875C106.806 29.947 106.719 28.822 106.551 28.499 106.315 28.067 105.761 27.843 104.879 27.843L104.705 27.843 104.705 26.13 112.428 26.13 112.428 41.161C112.428 43.15 113.255 44.146 114.909 44.146 116.277 44.146 117.203 43.201 117.682 41.273 117.893 40.502 117.993 39.445 117.993 38.101L117.993 31.883C117.993 29.756 117.894 28.584 117.688 28.357 117.39 28.018 116.768 27.841 115.816 27.841L115.232 27.841 115.232 26.128 123.664 26.128 123.664 41.47C123.664 43.149 123.764 44.131 123.969 44.393 124.23 44.753 124.734 44.927 125.474 44.927L126.002 44.927 126.002 46.569 118.516 46.569 118.391 43.274 118.516 43.36 118.553 43.449 118.676 43.309ZM135.26 25.659C132.505 25.659 130.28 26.841 128.588 29.194 127.096 31.29 126.35 33.684 126.35 36.382 126.35 39.342 126.897 41.742 128.016 43.596 129.434 45.995 131.628 47.19 134.608 47.19 136.137 47.19 137.467 46.717 138.6 45.772 139.483 45.014 140.061 44.18 140.329 43.272L140.186 43.384 140.018 43.223 140.161 46.569 147.492 46.569 147.492 44.95 147.125 44.95C146.286 44.95 145.731 44.726 145.465 44.291 145.254 43.98 145.153 43.396 145.153 42.562L145.153 16.373 136.573 17.029 136.573 18.559 137.133 18.559C138.215 18.559 138.911 18.854 139.23 19.439 139.417 19.784 139.529 20.564 139.566 21.783 139.566 25.072 139.622 26.996 139.734 27.544 138.939 26.284 137.441 25.659 135.26 25.659M139.611 34.169 139.611 38.311C139.611 39.442 139.525 40.387 139.357 41.133 138.847 43.397 137.765 44.54 136.124 44.54 133.823 44.54 132.667 41.816 132.667 36.382 132.667 33.964 132.805 32.182 133.064 31.028 133.591 28.799 134.642 27.684 136.21 27.684 138.475 27.683 139.611 29.847 139.611 34.169M153.738 35.879 166.181 35.879C166.161 32.805 165.472 30.379 164.117 28.607 162.588 26.589 160.324 25.579 157.327 25.579 154.572 25.579 152.291 26.571 150.474 28.551 148.646 30.591 147.739 33.19 147.739 36.345 147.739 39.591 148.535 42.165 150.138 44.069 151.855 46.159 154.297 47.19 157.462 47.19 159.918 47.19 161.988 46.283 163.667 44.479 165.136 42.899 165.899 41.208 165.956 39.393L163.886 39.393C163.866 40.735 163.357 41.993 162.357 43.162 161.224 44.505 159.876 45.164 158.302 45.164 156.058 45.164 154.64 43.56 154.056 40.351 153.846 39.28 153.738 37.8 153.738 35.879M157.266 27.139C159.416 27.139 160.498 29.48 160.498 34.162L153.738 34.162C153.758 33.432 153.789 32.825 153.826 32.338 154.111 28.874 155.257 27.139 157.266 27.139M174.271 28.787C174.738 27.839 175.484 27.071 176.502 26.474 177.523 25.877 178.653 25.578 179.903 25.578 184.001 25.578 186.051 27.804 186.051 32.259L186.051 41.569C186.051 42.6 186.059 43.221 186.076 43.434 186.15 44.428 186.785 44.925 187.96 44.925L188.389 44.925 188.389 46.567 180.43 46.567 180.43 31.542C180.43 30.503 180.307 29.757 180.057 29.303 179.698 28.641 179.02 28.308 178.018 28.308 177.074 28.308 176.315 28.768 175.743 29.695 175.179 30.625 174.891 31.992 174.891 33.802L174.891 41.506C174.891 43.235 174.971 44.204 175.145 44.391 175.487 44.752 176.096 44.926 176.967 44.926L177.309 44.926 177.309 46.569 166.938 46.569 166.938 44.926 167.492 44.926C168.55 44.926 169.115 44.43 169.196 43.434 169.233 43.199 169.252 42.526 169.252 41.419L169.252 31.193C169.252 29.604 169.134 28.637 168.898 28.289 168.669 27.938 168.17 27.764 167.413 27.764L166.941 27.764 166.941 26.126 174.271 26.126 174.271 28.787ZM196.104 47.189C192.703 47.189 190.993 45.26 190.993 41.406L190.993 27.839 187.337 27.839 187.337 26.2 187.898 26.2C189.9 26.2 191.59 25.075 192.984 22.811 194.177 20.912 194.788 18.968 194.825 16.994L196.541 16.994 196.541 26.2 200.445 26.2 200.445 27.839 196.541 27.839 196.541 42.09C196.541 43.77 197.059 44.615 198.096 44.615 199.01 44.615 199.602 43.818 199.868 42.226 199.961 41.654 200.011 40.509 200.011 38.806L201.926 38.806C201.926 41.618 201.671 43.543 201.167 44.551 200.318 46.318 198.627 47.189 196.104 47.189M30.581 6.402C16.177 6.402 6.767 18.241 6.767 29.262 6.767 35.592 8.309 38.744 10 41.765 12.133 36.034 16.396 24.632 16.396 24.632 16.396 24.632 18.382 23.606 18.382 23.756L21.245 16.478 23.086 15.523 25.368 10.67 30.358 11.479 40.505 17.137 51.896 20.3C48.961 12.804 40.654 6.402 30.581 6.402M30.431 55.21C24.185 55.21 16.543 53.009 11.028 46.244L49.769 46.244C45.28 52.052 37.569 55.21 30.431 55.21M38.08 45.075 34.548 45.075 41.102 36.911 41.761 38.16 38.08 45.075ZM41.537 19.121 30.295 12.583 26.176 11.846 26.176 14.859 29.338 17.803 24.926 17.43C24.926 17.43 25.069 17.654 28.741 21.549L45.504 24.341 48.439 26.253 40.803 26.62 37.644 38.16 27.276 45.075 20.511 45.075 22.793 40.586 22.423 40.438 16.32 45.077 14.853 45.077 21.099 36.321C21.394 33.825 21.245 34.927 21.615 30.44L20.66 29.12 18.16 38.82 12.94 45.076 11.615 45.076 14.702 40.734 19.039 27.432 17.935 27.942 16.023 33.236 14.702 33.969C14.702 33.969 11.615 41.468 9.998 45.136 7.649 41.768 5 37.209 5 29.263 5 17.355 15.219 4.789 30.581 4.789 45.355 4.789 53.227 16.55 54.545 22.647L41.537 19.121ZM48.812 36.32 46.673 38.16 42.42 45.075 39.622 45.075 42.42 40.137 44.621 38.309 47.792 29.414 51.162 30.81 48.812 36.32ZM50.801 45.075 45.143 45.075 50.503 36.618 52.12 31.103 55.502 32.281C55.204 36.544 53.811 40.872 50.801 45.075M43.887 34.927 42.196 35.227 42.644 31.84 42.196 31.178 42.644 27.354 46.972 29.12 43.887 34.927ZM203.284 44.938 203.825 44.938C204.633 44.938 205.142 44.676 205.347 44.18 205.478 43.819 205.539 42.923 205.539 41.481L205.539 30.792C205.539 29.343 205.401 28.494 205.102 28.236 204.817 27.981 204.387 27.854 203.823 27.854L203.282 27.854 203.282 26.215 211.085 26.215 211.085 41.48C211.085 43.16 211.185 44.142 211.397 44.427 211.658 44.775 212.143 44.937 212.876 44.937L213.437 44.937 213.437 46.58 203.284 46.58 203.284 44.938ZM204.77 20.489C204.77 19.566 205.094 18.785 205.748 18.135 206.369 17.5004 207.223 17.1486 208.11 17.162 209.001 17.1491 209.859 17.5006 210.485 18.135 211.151 18.785 211.481 19.565 211.481 20.489 211.481 21.415 211.151 22.208 210.485 22.87 209.827 23.541 209.037 23.874 208.11 23.874 207.184 23.874 206.401 23.541 205.748 22.87 205.109 22.2439 204.756 21.3832 204.77 20.489"/></g></svg>