<?xml version="1.0" encoding="utf-8"?>
<!-- Generator: Adobe Illustrator 27.9.0, SVG Export Plug-In . SVG Version: 6.00 Build 0)  -->
<svg version="1.1" id="Layer_1" xmlns="http://www.w3.org/2000/svg" xmlns:xlink="http://www.w3.org/1999/xlink" x="0px" y="0px"
	 viewBox="0 0 494.8 376.8" style="enable-background:new 0 0 494.8 376.8;" xml:space="preserve">
<style type="text/css">
	.st0{fill:#CD0000;}
</style>
<g>
	<g>
		<g>
			<g>
				<path class="st0" d="M488,136.2c-2.4-25.4-74.4-35-109-48.6c-15.7-6.3-19.3-11.1-21-18.4c-1.2-4.8-1.2-9.9-1.9-14.7
					c-0.7-4.3-2.2-8.2-5.3-11.4c-3.9-3.9-9.9-7.5-17.4-11.1c-22.2-10.9-42.3-17.6-60.4-21.3c-10.9-2.2-19.8-4.8-37,0.7
					c-19.8,6.3-37.5,21.3-36.2,44c1.4,24.9,25.4,42.3,43.7,55.6c7.5,5.3,15.5,10.4,23.2,15.7c15.9,10.9,32.9,23,43.3,39.9
					c17.6,29,4.1,65.5-29,74.7c-27.5,7.5-56.3-1.2-83.8-2.9c-18.4-1.2-42.8-1.9-56.8,12.1C126.8,264,105.5,345,291.8,360.7
					c-10.9-68.1,12.6-95.7,13.5-96.9c6.3-8.2,14.7-14,26.6-15c14.3-1.4,37,6,55.1,5.3C415.3,251.7,492.9,187.4,488,136.2z
					 M296.7,112.5c-8.2,0-15-6.8-15-15s6.8-15,15-15s15,6.8,15,15C311.9,105.8,305.1,112.5,296.7,112.5z M172.5,304.1l21.3-36.7
					l21.3,36.7H172.5z"/>
			</g>
			<g>
				<path class="st0" d="M6.5,234.6c0,25.6,15,52.4,34.8,71.8c3.9,3.6,8,7.2,12.1,10.4c-2.7-9.4-4.3-18.6-5.3-27.1
					c-6.8-70.8,36.2-99.3,64.3-102c32.1-3.1,65,9.9,85.5,10.4c0,0,0,0,0.2,0.2c20.8,2.2,47.4-0.7,45.2-27.1
					c-0.7-9.2-5.3-17.6-11.1-24.9c-14.3-18.6-32.6-33.6-47.6-51.5c-12.3-14.7-23.7-33.1-19.1-53.2c2.9-12.8,20.3-25.1,38.9-33.1
					c-19.3,2.2-32.6,8.2-47.6,18.8c-8.5,6-74.4,72.7-124.9,151.3c-6.8,10.4-11.4,17.4-15,22.5C9.6,211.4,6.5,222.7,6.5,234.6z"/>
			</g>
		</g>
		<g>
			<path class="st0" d="M248.3,137.2c1.2-1,2.4-1.9,3.6-3.1c-3.9-3.4-8-7-12.6-10.6c-0.7,1-1.4,1.7-2.2,2.7
				C241.1,129.7,244.7,133.3,248.3,137.2z"/>
		</g>
		<g>
			<path class="st0" d="M266.7,157.2c1.9-1.2,3.6-2.4,5.6-3.6c-4.3-4.8-9.4-9.9-15.5-15.2c-1.2,1.2-2.7,2.2-3.9,3.4
				c1,1,1.7,1.9,2.7,2.7C259.5,148.5,263.3,152.9,266.7,157.2z"/>
		</g>
		<g>
			<path class="st0" d="M288,184.5c-0.5-8.5-4.3-16.7-11.6-25.9c-1.9,1.4-3.9,2.7-6,3.9c3.6,5.6,6.5,11.4,8,17.6
				c0.2,1.2,0.2,2.2,0.5,3.4h0.2C281.9,183.8,285.1,184.1,288,184.5z"/>
		</g>
		<g>
			<path class="st0" d="M203.2,211.4c-10.4-1-20.5-2.2-30.9-2.9c-8.7-0.7-16.9-0.7-24.4-0.2c2.2,5.6,3.6,11.1,5.3,16.7v0.2
				c16.9-1.7,35.3-0.5,52.2,0.2c-0.2-4.3-1-8.7-2.2-13L203.2,211.4L203.2,211.4z"/>
		</g>
		<g>
			<path class="st0" d="M251.2,218.1c-1.2-2.2-2.2-4.3-3.4-6.8c-6,1-12.3,1.4-17.6,1.4c-6,0-11.8-0.2-17.6-0.7
				c1,4.3,1.7,8.9,1.9,13.5c3.6,0.2,7.5,0.2,10.9,0.2c11.6,0,21-1.2,28.8-3.4C253.2,221.3,252.2,219.8,251.2,218.1z"/>
		</g>
		<g>
			<path class="st0" d="M280.5,191.3c-0.7,0-1.4-0.2-2.2-0.2c-2.7,9.7-11.8,15.5-22.2,18.6c1.7,3.6,3.6,6.8,5.8,10.1l0.2,0.2
				c17.9-7.2,23.9-19.3,25.4-27.8C285.1,191.8,282.7,191.6,280.5,191.3z"/>
		</g>
	</g>
	<g>
		<path class="st0" d="M139.1,209c-19.1,2.4-33.6,8.5-44.2,17.2c3.1,1.9,6,3.9,9.2,6l2.4,1.9l0,0l6.5,4.8l1.7,1.2
			c8.7-8,19.3-11.4,25.1-12.8c0.5,0,0.7-0.2,1.2-0.2h0.2c1-0.2,2.2-0.5,3.1-0.5h0.2c0.2,0,0.2,0,0.2,0
			C143.2,220.5,141.5,214.5,139.1,209z"/>
	</g>
	<g>
		<path class="st0" d="M84.8,281.4H86c0.5,0,0.7,0,1.2,0l0,0l9.7,0.7l2.4,0.2c-1-16.4,3.4-28,9.9-36.2l-8.9-6.3l0,0
			c-0.7-0.5-1.4-1-2.2-1.4c-3.1-2.2-6.3-4.1-9.4-6c-11.4,12.8-16.9,29.5-17.9,48.6c3.9,0,8,0.2,11.8,0.5h2.2V281.4z"/>
	</g>
	<g>
		<path class="st0" d="M133.1,347.9c-0.5-0.5-1-0.7-1.4-1.2c-5.3-4.8-24.2-23-30-47.1c-0.7-2.7-1.2-5.3-1.7-8l-10.9-0.7l0,0l0,0
			c-6.3-0.5-12.6-1-18.8-1c0,4.3,0.2,8.7,0.7,13c1,9.9,2.7,20.1,5.3,30.2c10.4,5.6,37.7,9.9,52.9,13.5l2.7,0.7L133.1,347.9
			L133.1,347.9L133.1,347.9z"/>
	</g>
</g>
</svg>
