<?xml version="1.0" encoding="utf-8"?>
<!-- Generator: Adobe Illustrator 27.9.0, SVG Export Plug-In . SVG Version: 6.00 Build 0)  -->
<svg version="1.1" id="Layer_1" xmlns="http://www.w3.org/2000/svg" xmlns:xlink="http://www.w3.org/1999/xlink" x="0px" y="0px"
	 viewBox="0 0 697.4 162.8" style="enable-background:new 0 0 697.4 162.8;" xml:space="preserve">
<style type="text/css">
	.st0{fill:#CD0000;}
</style>
<g>
	<g>
		<g>
			<g>
				<g>
					<path class="st0" d="M214.3,57.9c-1-10.5-30.8-14.5-45.1-20.1c-6.5-2.6-8-4.6-8.7-7.6c-0.5-2-0.5-4.1-0.8-6.1
						c-0.3-1.8-0.9-3.4-2.2-4.7c-1.6-1.6-4.1-3.1-7.2-4.6c-9.2-4.5-17.5-7.3-25-8.8c-4.5-0.9-8.2-2-15.3,0.3
						c-8.2,2.6-15.5,8.8-15,18.2c0.6,10.3,10.5,17.5,18.1,23c3.1,2.2,6.4,4.3,9.6,6.5c6.6,4.5,13.6,9.5,17.9,16.5
						c7.3,12,1.7,27.1-12,30.9c-11.4,3.1-23.3-0.5-34.7-1.2c-7.6-0.5-17.7-0.8-23.5,5c-5.6,5.6-14.4,39.1,62.7,45.6
						c-4.5-28.2,5.2-39.6,5.6-40.1c2.6-3.4,6.1-5.8,11-6.2c5.9-0.6,15.3,2.5,22.8,2.2C184.2,105.7,216.3,79.1,214.3,57.9z
						 M135.1,48.1c-3.4,0-6.2-2.8-6.2-6.2c0-3.4,2.8-6.2,6.2-6.2c3.4,0,6.2,2.8,6.2,6.2C141.4,45.3,138.6,48.1,135.1,48.1z
						 M83.7,127.4l8.8-15.2l8.8,15.2H83.7z"/>
				</g>
				<g>
					<path class="st0" d="M15,98.6c0,10.6,6.2,21.7,14.4,29.7c1.6,1.5,3.3,3,5,4.3c-1.1-3.9-1.8-7.7-2.2-11.2
						c-2.8-29.3,15-41.1,26.6-42.2c13.3-1.3,26.9,4.1,35.4,4.3c0,0,0,0,0.1,0.1c8.6,0.9,19.6-0.3,18.7-11.2
						c-0.3-3.8-2.2-7.3-4.6-10.3c-5.9-7.7-13.5-13.9-19.7-21.3c-5.1-6.1-9.8-13.7-7.9-22C82,13.5,89.2,8.4,96.9,5.1
						c-8,0.9-13.5,3.4-19.7,7.8C73.7,15.4,46.4,43,25.5,75.5c-2.8,4.3-4.7,7.2-6.2,9.3C16.3,89,15,93.7,15,98.6z"/>
				</g>
			</g>
			<g>
				<path class="st0" d="M115.1,58.3c0.5-0.4,1-0.8,1.5-1.3c-1.6-1.4-3.3-2.9-5.2-4.4c-0.3,0.4-0.6,0.7-0.9,1.1
					C112.1,55.2,113.6,56.7,115.1,58.3z"/>
			</g>
			<g>
				<path class="st0" d="M122.7,66.6c0.8-0.5,1.5-1,2.3-1.5c-1.8-2-3.9-4.1-6.4-6.3c-0.5,0.5-1.1,0.9-1.6,1.4
					c0.4,0.4,0.7,0.8,1.1,1.1C119.7,63,121.3,64.8,122.7,66.6z"/>
			</g>
			<g>
				<path class="st0" d="M131.5,77.9c-0.2-3.5-1.8-6.9-4.8-10.7c-0.8,0.6-1.6,1.1-2.5,1.6c1.5,2.3,2.7,4.7,3.3,7.3
					c0.1,0.5,0.1,0.9,0.2,1.4h0.1C129,77.6,130.3,77.7,131.5,77.9z"/>
			</g>
			<g>
				<path class="st0" d="M96.4,89c-4.3-0.4-8.5-0.9-12.8-1.2c-3.6-0.3-7-0.3-10.1-0.1c0.9,2.3,1.5,4.6,2.2,6.9v0.1
					c7-0.7,14.6-0.2,21.6,0.1c-0.1-1.8-0.4-3.6-0.9-5.4V89z"/>
			</g>
			<g>
				<path class="st0" d="M116.3,91.8c-0.5-0.9-0.9-1.8-1.4-2.8c-2.5,0.4-5.1,0.6-7.3,0.6c-2.5,0-4.9-0.1-7.3-0.3
					c0.4,1.8,0.7,3.7,0.8,5.6c1.5,0.1,3.1,0.1,4.5,0.1c4.8,0,8.7-0.5,11.9-1.4C117.1,93.1,116.7,92.5,116.3,91.8z"/>
			</g>
			<g>
				<path class="st0" d="M128.4,80.7c-0.3,0-0.6-0.1-0.9-0.1c-1.1,4-4.9,6.4-9.2,7.7c0.7,1.5,1.5,2.8,2.4,4.2l0.1,0.1
					c7.4-3,9.9-8,10.5-11.5C130.3,80.9,129.3,80.8,128.4,80.7z"/>
			</g>
		</g>
		<g>
			<path class="st0" d="M69.9,88C62,89,56,91.5,51.6,95.1c1.3,0.8,2.5,1.6,3.8,2.5l1,0.8l0,0l2.7,2l0.7,0.5c3.6-3.3,8-4.7,10.4-5.3
				c0.2,0,0.3-0.1,0.5-0.1h0.1c0.4-0.1,0.9-0.2,1.3-0.2h0.1c0.1,0,0.1,0,0.1,0C71.6,92.8,70.9,90.3,69.9,88z"/>
		</g>
		<g>
			<path class="st0" d="M47.4,118h0.5c0.2,0,0.3,0,0.5,0l0,0l4,0.3l1,0.1c-0.4-6.8,1.4-11.6,4.1-15l-3.7-2.6l0,0
				c-0.3-0.2-0.6-0.4-0.9-0.6c-1.3-0.9-2.6-1.7-3.9-2.5c-4.7,5.3-7,12.2-7.4,20.1c1.6,0,3.3,0.1,4.9,0.2H47.4z"/>
		</g>
		<g>
			<path class="st0" d="M67.4,145.5c-0.2-0.2-0.4-0.3-0.6-0.5c-2.2-2-10-9.5-12.4-19.5c-0.3-1.1-0.5-2.2-0.7-3.3l-4.5-0.3l0,0l0,0
				c-2.6-0.2-5.2-0.4-7.8-0.4c0,1.8,0.1,3.6,0.3,5.4c0.4,4.1,1.1,8.3,2.2,12.5c4.3,2.3,15.6,4.1,21.9,5.6l1.1,0.3L67.4,145.5
				L67.4,145.5L67.4,145.5z"/>
		</g>
	</g>
	<g>
		<path class="st0" d="M253.7,116v6h-3.9v-6l-6.5-10.8h4.1l4.5,7.5l4.5-7.5h3.8L253.7,116z"/>
		<path class="st0" d="M259.2,115.5c0-3.9,3-6.6,7.1-6.6s7.1,2.8,7.1,6.6c0,3.9-3,6.6-7.1,6.6S259.2,119.3,259.2,115.5z
			 M269.6,115.5c0-2.2-1.4-3.6-3.3-3.6s-3.3,1.3-3.3,3.6c0,2.2,1.4,3.6,3.3,3.6S269.6,117.7,269.6,115.5z"/>
		<path class="st0" d="M288.9,109v12.9h-3.6v-1.5c-1,1.1-2.4,1.7-4,1.7c-3.2,0-5.5-1.8-5.5-5.8V109h3.7v6.7c0,2.2,1,3.1,2.6,3.1
			c1.7,0,3-1.1,3-3.5V109H288.9z"/>
		<path class="st0" d="M300.4,108.8v3.5c-0.3,0-0.6,0-0.8,0c-2.1,0-3.4,1.1-3.4,3.6v6.1h-3.7v-13h3.6v1.7
			C296.9,109.5,298.4,108.8,300.4,108.8z"/>
		<path class="st0" d="M325.2,117.3c0,2.9-2.3,4.6-6.7,4.6h-8.7v-16.8h8.2c4.2,0,6.4,1.8,6.4,4.4c0,1.7-0.9,3-2.2,3.7
			C324,113.8,325.2,115.2,325.2,117.3z M313.6,108v4h3.9c1.9,0,2.9-0.7,2.9-2s-1-2-2.9-2H313.6z M321.3,116.9c0-1.4-1.1-2.1-3.1-2.1
			h-4.5v4.2h4.5C320.2,119,321.3,118.4,321.3,116.9z"/>
		<path class="st0" d="M327.9,104.1h3.7v17.8h-3.7V104.1z"/>
		<path class="st0" d="M348.1,109v12.9h-3.6v-1.5c-1,1.1-2.4,1.7-4,1.7c-3.2,0-5.5-1.8-5.5-5.8V109h3.7v6.7c0,2.2,1,3.1,2.6,3.1
			c1.7,0,3-1.1,3-3.5V109H348.1z"/>
		<path class="st0" d="M364.2,116.5h-9.8c0.4,1.6,1.7,2.6,3.7,2.6c1.4,0,2.4-0.4,3.2-1.2l2,2.2c-1.2,1.4-3,2.1-5.3,2.1
			c-4.5,0-7.4-2.8-7.4-6.6c0-3.9,3-6.6,6.9-6.6c3.8,0,6.7,2.5,6.7,6.7C364.2,115.8,364.2,116.2,364.2,116.5z M354.3,114.3h6.4
			c-0.3-1.6-1.5-2.7-3.2-2.7C355.8,111.6,354.6,112.7,354.3,114.3z"/>
		<path class="st0" d="M380.8,115.5c0,4.1-2.8,6.6-6.4,6.6c-1.6,0-2.9-0.5-3.9-1.6v6h-3.7V109h3.6v1.5c0.9-1.1,2.3-1.7,4.1-1.7
			C378,108.8,380.8,111.4,380.8,115.5z M377,115.5c0-2.2-1.4-3.6-3.3-3.6s-3.3,1.3-3.3,3.6c0,2.2,1.4,3.6,3.3,3.6
			S377,117.7,377,115.5z"/>
		<path class="st0" d="M391.3,108.8v3.5c-0.3,0-0.6,0-0.8,0c-2.1,0-3.4,1.1-3.4,3.6v6.1h-3.7v-13h3.6v1.7
			C387.8,109.5,389.3,108.8,391.3,108.8z"/>
		<path class="st0" d="M393.1,105.1c0-1.2,0.9-2.1,2.3-2.1c1.4,0,2.3,0.9,2.3,2c0,1.2-0.9,2.2-2.3,2.2S393.1,106.3,393.1,105.1z
			 M393.5,109h3.7v12.9h-3.7V109z"/>
		<path class="st0" d="M414,114.5v7.4h-3.7v-6.8c0-2.1-1-3-2.6-3c-1.8,0-3.1,1.1-3.1,3.5v6.4h-3.7v-13h3.6v1.5
			c1-1.1,2.5-1.7,4.3-1.7C411.6,108.8,414,110.6,414,114.5z"/>
		<path class="st0" d="M425.7,121.3c-0.8,0.6-1.9,0.8-3,0.8c-3,0-4.8-1.6-4.8-4.6v-5.3h-2v-2.9h2v-3.1h3.7v3.1h3.2v2.9h-3.2v5.3
			c0,1.1,0.6,1.7,1.6,1.7c0.6,0,1.1-0.2,1.5-0.5L425.7,121.3z"/>
		<path class="st0" d="M442.9,121.3c-0.8,0.6-1.9,0.8-3,0.8c-3,0-4.8-1.6-4.8-4.6v-5.3h-2v-2.9h2v-3.1h3.7v3.1h3.2v2.9h-3.2v5.3
			c0,1.1,0.6,1.7,1.6,1.7c0.6,0,1.1-0.2,1.5-0.5L442.9,121.3z"/>
		<path class="st0" d="M443.6,115.5c0-3.9,3-6.6,7.1-6.6s7.1,2.8,7.1,6.6c0,3.9-3,6.6-7.1,6.6S443.6,119.3,443.6,115.5z M454,115.5
			c0-2.2-1.4-3.6-3.3-3.6s-3.3,1.3-3.3,3.6c0,2.2,1.4,3.6,3.3,3.6S454,117.7,454,115.5z"/>
		<path class="st0" d="M482.7,121.9v-10.1l-4.9,8.3H476l-5-8.1v9.9h-3.6v-16.8h3.2l6.3,10.4l6.2-10.4h3.2v16.8H482.7z"/>
		<path class="st0" d="M501.5,114.5v7.4H498v-1.6c-0.7,1.2-2,1.8-3.9,1.8c-3,0-4.8-1.7-4.8-3.9c0-2.3,1.6-3.9,5.5-3.9h3
			c0-1.6-1-2.5-3-2.5c-1.4,0-2.8,0.5-3.7,1.2l-1.3-2.6c1.4-1,3.5-1.6,5.6-1.6C499.2,108.8,501.5,110.6,501.5,114.5z M497.7,117.8
			v-1.3h-2.6c-1.8,0-2.3,0.6-2.3,1.5s0.8,1.6,2.1,1.6S497.3,119,497.7,117.8z"/>
		<path class="st0" d="M512.9,108.8v3.5c-0.3,0-0.6,0-0.8,0c-2.1,0-3.4,1.1-3.4,3.6v6.1H505v-13h3.6v1.7
			C509.3,109.5,510.9,108.8,512.9,108.8z"/>
		<path class="st0" d="M523.9,121.3c-0.8,0.6-1.9,0.8-3,0.8c-3,0-4.8-1.6-4.8-4.6v-5.3h-2v-2.9h2v-3.1h3.7v3.1h3.2v2.9h-3.2v5.3
			c0,1.1,0.6,1.7,1.6,1.7c0.6,0,1.1-0.2,1.5-0.5L523.9,121.3z"/>
		<path class="st0" d="M538.1,116.5h-9.8c0.4,1.6,1.7,2.6,3.7,2.6c1.4,0,2.4-0.4,3.2-1.2l2,2.2c-1.2,1.4-3,2.1-5.3,2.1
			c-4.5,0-7.4-2.8-7.4-6.6c0-3.9,3-6.6,6.9-6.6c3.8,0,6.7,2.5,6.7,6.7C538.2,115.8,538.2,116.2,538.1,116.5z M528.3,114.3h6.4
			c-0.3-1.6-1.5-2.7-3.2-2.7C529.8,111.6,528.6,112.7,528.3,114.3z"/>
		<path class="st0" d="M539.8,115.5c0-3.9,3-6.6,7.2-6.6c2.7,0,4.8,1.2,5.8,3.3l-2.9,1.6c-0.7-1.2-1.7-1.8-2.9-1.8
			c-1.9,0-3.4,1.3-3.4,3.6c0,2.3,1.5,3.6,3.4,3.6c1.2,0,2.2-0.5,2.9-1.8l2.9,1.6c-0.9,2.1-3.1,3.3-5.8,3.3
			C542.8,122.1,539.8,119.3,539.8,115.5z"/>
		<path class="st0" d="M568,114.5v7.4h-3.7v-6.8c0-2.1-1-3-2.6-3c-1.8,0-3.1,1.1-3.1,3.5v6.4h-3.7v-17.8h3.7v6.2
			c1-1,2.4-1.5,4.1-1.5C565.7,108.8,568,110.6,568,114.5z"/>
		<path class="st0" d="M593.7,121.9v-10.1l-4.9,8.3H587l-4.9-8.1v9.9h-3.6v-16.8h3.2l6.3,10.4l6.2-10.4h3.2v16.8L593.7,121.9
			L593.7,121.9z"/>
		<path class="st0" d="M612.5,114.5v7.4H609v-1.6c-0.7,1.2-2,1.8-3.9,1.8c-3,0-4.8-1.7-4.8-3.9c0-2.3,1.6-3.9,5.5-3.9h3
			c0-1.6-1-2.5-3-2.5c-1.4,0-2.8,0.5-3.7,1.2l-1.3-2.6c1.4-1,3.5-1.6,5.6-1.6C610.2,108.8,612.5,110.6,612.5,114.5z M608.8,117.8
			v-1.3h-2.6c-1.8,0-2.3,0.6-2.3,1.5s0.8,1.6,2.1,1.6S608.3,119,608.8,117.8z"/>
		<path class="st0" d="M614.7,120.7l1.2-2.7c1.2,0.7,2.9,1.2,4.5,1.2c1.7,0,2.4-0.5,2.4-1.2c0-2.1-7.8,0-7.8-5.1
			c0-2.4,2.2-4.2,6-4.2c1.8,0,3.7,0.4,5,1.1l-1.2,2.7c-1.3-0.7-2.5-1-3.7-1c-1.7,0-2.4,0.5-2.4,1.2c0,2.2,7.8,0.1,7.8,5.2
			c0,2.4-2.2,4.1-6.1,4.1C618.1,122.1,615.9,121.5,614.7,120.7z"/>
		<path class="st0" d="M637,121.3c-0.8,0.6-1.9,0.8-3,0.8c-3,0-4.8-1.6-4.8-4.6v-5.3h-2v-2.9h2v-3.1h3.7v3.1h3.2v2.9h-3.2v5.3
			c0,1.1,0.6,1.7,1.6,1.7c0.6,0,1.1-0.2,1.5-0.5L637,121.3z"/>
		<path class="st0" d="M651.3,116.5h-9.8c0.4,1.6,1.7,2.6,3.7,2.6c1.4,0,2.4-0.4,3.2-1.2l2,2.2c-1.2,1.4-3,2.1-5.3,2.1
			c-4.5,0-7.4-2.8-7.4-6.6c0-3.9,3-6.6,6.9-6.6c3.8,0,6.7,2.5,6.7,6.7C651.3,115.8,651.3,116.2,651.3,116.5z M641.4,114.3h6.4
			c-0.3-1.6-1.5-2.7-3.2-2.7C642.9,111.6,641.7,112.7,641.4,114.3z"/>
		<path class="st0" d="M661.8,108.8v3.5c-0.3,0-0.6,0-0.8,0c-2.1,0-3.4,1.1-3.4,3.6v6.1h-3.7v-13h3.6v1.7
			C658.3,109.5,659.9,108.8,661.8,108.8z"/>
		<path class="st0" d="M677.3,109l-5.8,13.7c-1.2,3.1-3,4.1-5.4,4.1c-1.3,0-2.8-0.4-3.6-1.2l1.4-2.7c0.6,0.5,1.4,0.8,2.1,0.8
			c1,0,1.6-0.5,2.1-1.6V122l-5.6-13h3.9l3.6,8.8l3.6-8.8L677.3,109L677.3,109z"/>
	</g>
	<g>
		<g>
			<path d="M243.3,30.4h21.9v47.9h29.3v16.9h-51.1L243.3,30.4L243.3,30.4z"/>
		</g>
		<g>
			<path d="M352.8,68v27.2h-19.5v-6.7c-2.4,5.1-7.2,7.6-14.4,7.6c-12.4,0-18.8-7-18.8-15.7c0-9.8,7.4-15.3,23.2-15.3h8.4
				c-0.6-3.9-3.6-5.9-9.5-5.9c-4.5,0-9.6,1.5-13,4l-6.7-13.8c5.9-3.7,14.9-5.7,22.8-5.7C342.8,43.7,352.8,51.2,352.8,68z
				 M331.9,78.8v-3.5h-5.2c-4.4,0-6.4,1.5-6.4,4.3c0,2.3,1.9,4.1,5,4.1C328.2,83.6,330.8,82.1,331.9,78.8z"/>
		</g>
		<g>
			<path d="M418.2,69.9c0,16.3-11.2,26.3-24.5,26.3c-6.3,0-10.8-1.7-13.9-5.1v4.2h-19.9V26.6h20.9V48c3.1-3,7.3-4.4,12.9-4.4
				C407,43.7,418.2,53.6,418.2,69.9z M397,69.9c0-6.6-3.6-9.9-8.2-9.9c-4.6,0-8.2,3.3-8.2,9.9s3.6,10,8.2,10
				C393.3,79.9,397,76.4,397,69.9z"/>
		</g>
		<g>
			<path d="M460.1,43.7v18.5c-1.9-0.3-3.1-0.4-4.6-0.4c-6.3,0-10.7,2.9-10.7,10.9v22.5h-20.9V44.5h19.9V50
				C447.4,45.8,453,43.7,460.1,43.7z"/>
		</g>
		<g>
			<path d="M516.6,68v27.2h-19.5v-6.7c-2.4,5.1-7.2,7.6-14.4,7.6c-12.4,0-18.8-7-18.8-15.7c0-9.8,7.4-15.3,23.2-15.3h8.4
				c-0.6-3.9-3.6-5.9-9.5-5.9c-4.5,0-9.6,1.5-13,4l-6.7-13.8c5.9-3.7,14.9-5.7,22.8-5.7C506.6,43.7,516.6,51.2,516.6,68z
				 M495.7,78.8v-3.5h-5.2c-4.4,0-6.4,1.5-6.4,4.3c0,2.3,1.9,4.1,5,4.1C492,83.6,494.6,82.1,495.7,78.8z"/>
		</g>
		<g>
			<path d="M581.7,26.5v68.7h-19.9V91c-3.1,3.4-7.6,5.1-13.9,5.1c-13.2,0-24.5-10-24.5-26.3s11.2-26.2,24.5-26.2
				c5.6,0,9.8,1.4,12.9,4.4V26.5H581.7z M561.1,69.9c0-6.6-3.6-9.9-8.2-9.9s-8.2,3.3-8.2,9.9s3.6,10,8.2,10S561.1,76.4,561.1,69.9z"
				/>
		</g>
		<g>
			<path d="M586.2,69.9c0-15.4,12.3-26.2,29.5-26.2s29.5,10.8,29.5,26.2S633,96.2,615.7,96.2C598.6,96.2,586.2,85.2,586.2,69.9z
				 M623.9,69.9c0-6.6-3.6-9.9-8.2-9.9s-8.2,3.3-8.2,9.9s3.6,10,8.2,10S623.9,76.4,623.9,69.9z"/>
		</g>
		<g>
			<path d="M688,43.7v18.5c-1.9-0.3-3.1-0.4-4.6-0.4c-6.3,0-10.7,2.9-10.7,10.9v22.5h-20.9V44.5h19.9V50
				C675.4,45.8,681,43.7,688,43.7z"/>
		</g>
	</g>
</g>
</svg>
